<svg width="1920" height="685" viewBox="0 0 1920 685" fill="none" xmlns="http://www.w3.org/2000/svg">
<g opacity="0.8">
<path d="M1612.49 233.004L1612.49 431.015M1612.49 567.504L1612.49 431.015M1612.49 431.015L1674.2 488.237L1675.07 538.304M1677.37 671.091L1675.07 538.304M1675.07 538.304L1744.69 538.304L1744.69 423.949M1745.5 355.34L1744.69 423.949M1744.69 423.949L1796.34 379.174L1798.55 263.6" stroke="#00BAFF" stroke-width="4.40719"/>
<path d="M1616.56 229.759C1617.97 232.248 1617.11 235.407 1614.63 236.818C1612.15 238.228 1608.99 237.358 1607.58 234.869C1606.16 232.381 1607.02 229.221 1609.5 227.811C1611.98 226.401 1615.14 227.271 1616.56 229.759Z" fill="#00BAFF" stroke="#00BAFF" stroke-width="1.1018"/>
<path d="M1749.63 354.085C1751.05 356.574 1750.18 359.733 1747.7 361.144C1745.22 362.554 1742.07 361.684 1740.65 359.196C1739.24 356.707 1740.1 353.548 1742.58 352.137C1745.06 350.727 1748.22 351.597 1749.63 354.085Z" fill="#00BAFF" stroke="#00BAFF" stroke-width="1.1018"/>
<path d="M1803.04 261.045C1804.46 263.534 1803.59 266.693 1801.11 268.104C1798.63 269.514 1795.48 268.644 1794.06 266.156C1792.64 263.667 1793.51 260.508 1795.99 259.097C1798.47 257.687 1801.63 258.557 1803.04 261.045Z" fill="#00BAFF" stroke="#00BAFF" stroke-width="1.1018"/>
<path d="M1623.28 565.572C1624.7 568.06 1623.83 571.22 1621.35 572.63C1618.87 574.041 1615.72 573.17 1614.3 570.682C1612.88 568.194 1613.75 565.034 1616.23 563.624C1618.71 562.213 1621.86 563.084 1623.28 565.572Z" fill="#00BAFF" stroke="#00BAFF" stroke-width="1.1018"/>
<path d="M1681.87 668.537C1683.28 671.025 1682.42 674.185 1679.94 675.595C1677.46 677.005 1674.3 676.135 1672.88 673.647C1671.47 671.158 1672.33 667.999 1674.81 666.588C1677.29 665.178 1680.45 666.048 1681.87 668.537Z" fill="#00BAFF" stroke="#00BAFF" stroke-width="1.1018"/>
</g>
<g opacity="0.8">
<path d="M1547.38 599.898L1547.38 401.887M1547.38 265.398L1547.38 401.887M1547.38 401.887L1485.67 344.665L1484.8 294.598M1482.5 161.81L1484.8 294.598M1484.8 294.598L1415.18 294.598L1415.18 408.953M1414.37 477.562L1415.18 408.953M1415.18 408.953L1363.54 453.728L1361.32 569.302" stroke="#00BAFF" stroke-width="4.40719"/>
<path d="M1543.31 603.143C1541.9 600.654 1542.76 597.495 1545.24 596.084C1547.72 594.674 1550.88 595.544 1552.3 598.032C1553.71 600.521 1552.85 603.68 1550.37 605.091C1547.89 606.501 1544.73 605.631 1543.31 603.143Z" fill="#00BAFF" stroke="#00BAFF" stroke-width="1.1018"/>
<path d="M1410.24 478.815C1408.82 476.327 1409.69 473.168 1412.17 471.757C1414.65 470.347 1417.8 471.217 1419.22 473.705C1420.64 476.194 1419.77 479.353 1417.29 480.764C1414.81 482.174 1411.65 481.304 1410.24 478.815Z" fill="#00BAFF" stroke="#00BAFF" stroke-width="1.1018"/>
<path d="M1356.83 571.856C1355.41 569.368 1356.28 566.209 1358.76 564.798C1361.24 563.388 1364.4 564.258 1365.81 566.746C1367.23 569.235 1366.36 572.394 1363.88 573.805C1361.4 575.215 1358.25 574.345 1356.83 571.856Z" fill="#00BAFF" stroke="#00BAFF" stroke-width="1.1018"/>
<path d="M1542.59 267.33C1541.17 264.842 1542.04 261.682 1544.52 260.272C1547 258.861 1550.16 259.732 1551.57 262.22C1552.99 264.708 1552.12 267.868 1549.64 269.278C1547.16 270.689 1544.01 269.818 1542.59 267.33Z" fill="#00BAFF" stroke="#00BAFF" stroke-width="1.1018"/>
<path d="M1478.01 164.365C1476.59 161.877 1477.45 158.717 1479.93 157.307C1482.41 155.896 1485.57 156.767 1486.99 159.255C1488.4 161.743 1487.54 164.903 1485.06 166.314C1482.58 167.724 1479.42 166.853 1478.01 164.365Z" fill="#00BAFF" stroke="#00BAFF" stroke-width="1.1018"/>
</g>
<g opacity="0.8">
<path d="M1307.38 238.499L1307.38 436.51M1307.38 572.999L1307.38 436.51M1307.38 436.51L1245.67 493.732L1244.8 543.799M1242.5 676.587L1244.8 543.799M1244.8 543.799L1175.18 543.799L1175.18 429.444M1174.37 360.835L1175.18 429.444M1175.18 429.444L1123.54 384.669L1121.32 269.095" stroke="#00BAFF" stroke-width="4.40719"/>
<path d="M1303.31 235.254C1301.9 237.743 1302.76 240.902 1305.24 242.313C1307.72 243.723 1310.88 242.853 1312.3 240.364C1313.71 237.876 1312.85 234.717 1310.37 233.306C1307.89 231.896 1304.73 232.766 1303.31 235.254Z" fill="#00BAFF" stroke="#00BAFF" stroke-width="1.1018"/>
<path d="M1170.24 359.581C1168.82 362.069 1169.69 365.228 1172.17 366.639C1174.65 368.049 1177.8 367.179 1179.22 364.691C1180.64 362.202 1179.77 359.043 1177.29 357.632C1174.81 356.222 1171.65 357.092 1170.24 359.581Z" fill="#00BAFF" stroke="#00BAFF" stroke-width="1.1018"/>
<path d="M1116.83 266.541C1115.41 269.029 1116.28 272.188 1118.76 273.599C1121.24 275.009 1124.39 274.139 1125.81 271.651C1127.23 269.162 1126.36 266.003 1123.88 264.592C1121.4 263.182 1118.25 264.052 1116.83 266.541Z" fill="#00BAFF" stroke="#00BAFF" stroke-width="1.1018"/>
<path d="M1296.59 571.067C1295.17 573.555 1296.04 576.715 1298.52 578.125C1301 579.536 1304.16 578.665 1305.57 576.177C1306.99 573.689 1306.12 570.529 1303.64 569.119C1301.16 567.708 1298.01 568.579 1296.59 571.067Z" fill="#00BAFF" stroke="#00BAFF" stroke-width="1.1018"/>
<path d="M1238.01 674.032C1236.59 676.52 1237.45 679.68 1239.93 681.09C1242.41 682.501 1245.57 681.63 1246.99 679.142C1248.4 676.654 1247.54 673.494 1245.06 672.083C1242.58 670.673 1239.42 671.543 1238.01 674.032Z" fill="#00BAFF" stroke="#00BAFF" stroke-width="1.1018"/>
</g>
<g opacity="0.8">
<path d="M618.495 175.004L618.494 373.015M618.495 509.504L618.494 373.015M618.494 373.015L680.2 430.237L681.069 480.304M683.375 613.091L681.069 480.304M681.069 480.304L750.688 480.304L750.688 365.949M751.498 297.34L750.688 365.949M750.688 365.949L802.335 321.174L804.551 205.6" stroke="#00BAFF" stroke-width="4.40719"/>
<path d="M622.557 171.759C623.972 174.248 623.107 177.407 620.628 178.818C618.149 180.228 614.991 179.358 613.576 176.869C612.16 174.381 613.025 171.221 615.504 169.811C617.983 168.401 621.141 169.271 622.557 171.759Z" fill="#00BAFF" stroke="#00BAFF" stroke-width="1.1018"/>
<path d="M755.632 296.085C757.048 298.574 756.183 301.733 753.704 303.144C751.225 304.554 748.067 303.684 746.651 301.196C745.235 298.707 746.1 295.548 748.579 294.137C751.058 292.727 754.216 293.597 755.632 296.085Z" fill="#00BAFF" stroke="#00BAFF" stroke-width="1.1018"/>
<path d="M809.041 203.045C810.457 205.534 809.592 208.693 807.113 210.104C804.634 211.514 801.476 210.644 800.06 208.156C798.644 205.667 799.509 202.508 801.988 201.097C804.467 199.687 807.625 200.557 809.041 203.045Z" fill="#00BAFF" stroke="#00BAFF" stroke-width="1.1018"/>
<path d="M629.281 507.572C630.697 510.06 629.831 513.22 627.353 514.63C624.874 516.041 621.715 515.17 620.3 512.682C618.884 510.194 619.749 507.034 622.228 505.624C624.707 504.213 627.865 505.084 629.281 507.572Z" fill="#00BAFF" stroke="#00BAFF" stroke-width="1.1018"/>
<path d="M687.865 610.537C689.281 613.025 688.416 616.185 685.937 617.595C683.458 619.005 680.3 618.135 678.884 615.647C677.468 613.158 678.333 609.999 680.812 608.588C683.291 607.178 686.449 608.048 687.865 610.537Z" fill="#00BAFF" stroke="#00BAFF" stroke-width="1.1018"/>
</g>
<g opacity="0.8">
<path d="M543.376 81.0057L543.376 279.017M543.376 415.506L543.376 279.017M543.376 279.017L481.671 336.238L480.801 386.306M478.496 519.093L480.801 386.306M480.801 386.306L411.183 386.306L411.183 271.951M410.373 203.341L411.183 271.951M411.183 271.951L359.535 227.176L357.32 111.601" stroke="#00BAFF" stroke-width="4.40719"/>
<path d="M539.314 77.7603C537.898 80.2485 538.763 83.4082 541.242 84.8186C543.721 86.2291 546.879 85.3586 548.295 82.8704C549.711 80.3821 548.846 77.2224 546.367 75.812C543.888 74.4015 540.73 75.272 539.314 77.7603Z" fill="#00BAFF" stroke="#00BAFF" stroke-width="1.1018"/>
<path d="M406.238 202.087C404.822 204.576 405.688 207.735 408.167 209.146C410.645 210.556 413.804 209.686 415.219 207.198C416.635 204.709 415.77 201.55 413.291 200.139C410.812 198.729 407.654 199.599 406.238 202.087Z" fill="#00BAFF" stroke="#00BAFF" stroke-width="1.1018"/>
<path d="M352.83 109.047C351.414 111.535 352.279 114.695 354.758 116.105C357.237 117.516 360.395 116.645 361.811 114.157C363.226 111.669 362.361 108.509 359.882 107.099C357.403 105.688 354.245 106.559 352.83 109.047Z" fill="#00BAFF" stroke="#00BAFF" stroke-width="1.1018"/>
<path d="M538.59 413.574C537.174 416.063 538.039 419.222 540.518 420.633C542.997 422.043 546.155 421.173 547.571 418.684C548.987 416.196 548.121 413.036 545.642 411.626C543.163 410.215 540.005 411.086 538.59 413.574Z" fill="#00BAFF" stroke="#00BAFF" stroke-width="1.1018"/>
<path d="M474.005 516.538C472.59 519.026 473.455 522.186 475.934 523.596C478.413 525.006 481.571 524.136 482.987 521.648C484.402 519.159 483.537 516 481.058 514.589C478.579 513.179 475.421 514.049 474.005 516.538Z" fill="#00BAFF" stroke="#00BAFF" stroke-width="1.1018"/>
</g>
<g opacity="0.8">
<path d="M319.376 221.004L319.376 419.015M319.376 555.504L319.376 419.015M319.376 419.015L257.671 476.237L256.801 526.304M254.496 659.091L256.801 526.304M256.801 526.304L187.183 526.304L187.183 411.949M186.373 343.34L187.183 411.949M187.183 411.949L135.535 367.174L133.32 251.6" stroke="#00BAFF" stroke-width="4.40719"/>
<path d="M315.314 217.759C313.898 220.248 314.763 223.407 317.242 224.818C319.721 226.228 322.879 225.358 324.295 222.869C325.711 220.381 324.846 217.221 322.367 215.811C319.888 214.401 316.73 215.271 315.314 217.759Z" fill="#00BAFF" stroke="#00BAFF" stroke-width="1.1018"/>
<path d="M182.238 342.086C180.822 344.575 181.688 347.734 184.167 349.145C186.645 350.555 189.804 349.685 191.219 347.197C192.635 344.708 191.77 341.549 189.291 340.138C186.812 338.728 183.654 339.598 182.238 342.086Z" fill="#00BAFF" stroke="#00BAFF" stroke-width="1.1018"/>
<path d="M128.83 249.046C127.414 251.534 128.279 254.694 130.758 256.104C133.237 257.515 136.395 256.644 137.811 254.156C139.226 251.668 138.361 248.508 135.882 247.098C133.403 245.687 130.245 246.558 128.83 249.046Z" fill="#00BAFF" stroke="#00BAFF" stroke-width="1.1018"/>
<path d="M314.59 553.573C313.174 556.062 314.039 559.221 316.518 560.632C318.997 562.042 322.155 561.172 323.571 558.683C324.987 556.195 324.121 553.035 321.642 551.625C319.163 550.215 316.005 551.085 314.59 553.573Z" fill="#00BAFF" stroke="#00BAFF" stroke-width="1.1018"/>
<path d="M250.005 656.537C248.59 659.025 249.455 662.185 251.934 663.595C254.413 665.005 257.571 664.135 258.987 661.647C260.402 659.158 259.537 655.999 257.058 654.588C254.579 653.178 251.421 654.048 250.005 656.537Z" fill="#00BAFF" stroke="#00BAFF" stroke-width="1.1018"/>
</g>
<g opacity="0.8">
<path d="M980.743 92.0449V197.014M980.743 301.982V350.489M980.743 301.982L1049.04 350.489V452.742M980.743 301.982V197.014M1049.04 554.994V452.742M1049.04 452.742L1109.58 498.726V653.56M980.743 197.014L922.535 268.222V343.504M922.535 418.787V343.504M922.535 343.504L869.372 395.116V441.488M869.372 487.861V441.488M869.372 441.488L814.268 476.995V533.845M814.268 590.695V533.845M814.268 533.845L763.433 567.024V679.172" stroke="#00BAFF" stroke-width="4"/>
<circle cx="981.217" cy="353.68" r="4.57979" fill="#00BAFF" stroke="#00BAFF" stroke-width="1.1018"/>
<circle cx="923.009" cy="416.545" r="4.57979" fill="#00BAFF" stroke="#00BAFF" stroke-width="1.1018"/>
<circle cx="870.234" cy="488.722" r="4.57979" fill="#00BAFF" stroke="#00BAFF" stroke-width="1.1018"/>
<circle cx="815.906" cy="585.736" r="4.57979" fill="#00BAFF" stroke="#00BAFF" stroke-width="1.1018"/>
<circle cx="763.131" cy="678.869" r="4.57979" fill="#00BAFF" stroke="#00BAFF" stroke-width="1.1018"/>
<circle cx="1109.28" cy="652.481" r="4.57979" fill="#00BAFF" stroke="#00BAFF" stroke-width="1.1018"/>
<circle cx="1048.74" cy="552.363" r="4.57979" fill="#00BAFF" stroke="#00BAFF" stroke-width="1.1018"/>
<circle cx="981.217" cy="92.1307" r="4.57979" fill="#00BAFF" stroke="#00BAFF" stroke-width="1.1018"/>
</g>
</svg>
